<?xml version="1.0" encoding="UTF-8" standalone="no"?>
<!DOCTYPE svg PUBLIC "-//W3C//DTD SVG 1.1//EN" "http://www.w3.org/Graphics/SVG/1.1/DTD/svg11.dtd">
<svg width="100%" height="100%" viewBox="0 0 400 400" version="1.1" xmlns="http://www.w3.org/2000/svg" xmlns:xlink="http://www.w3.org/1999/xlink" xml:space="preserve" xmlns:serif="http://www.serif.com/" style="fill-rule:evenodd;clip-rule:evenodd;stroke-linejoin:round;stroke-miterlimit:2;">
    <g transform="matrix(1.52379,0,0,1.52379,-104.757,-72.0597)">
        <g>
            <g transform="matrix(2.01502,0,0,2.01502,-203.004,-226.007)">
                <g transform="matrix(0.618428,0,0,0.618428,90.6574,103.112)">
                    <path d="M133.903,109.409C145.204,99.042 160.277,92.754 176.807,92.754C194.131,92.754 209.854,99.661 221.349,110.898L199.766,110.898C192.986,110.898 187.482,116.402 187.482,123.181C187.482,129.96 192.986,135.464 199.766,135.464L237.038,135.464C239.448,142.084 240.722,149.229 240.722,156.669C240.722,163.84 239.538,170.737 237.299,177.161L191.056,177.161C187.346,177.161 184.334,180.173 184.334,183.883C184.334,187.593 187.346,190.606 191.056,190.606L230.887,190.606C229.388,193.004 227.734,195.295 225.927,197.457L199.363,197.457C197.422,197.457 195.846,199.033 195.846,200.974C195.846,202.915 197.422,204.491 199.363,204.491L219.114,204.491C207.875,214.516 193.044,220.583 176.807,220.583C164.939,220.583 153.823,217.342 144.318,211.654L177.838,211.654C179.439,211.654 180.739,210.354 180.739,208.753C180.739,207.151 179.439,205.851 177.838,205.851L136.08,205.851C126.563,198.017 119.387,187.459 115.695,175.384L138.909,175.384C141.856,175.384 144.249,172.991 144.249,170.044C144.249,167.097 141.856,164.704 138.909,164.704L113.453,164.704C113.063,162.076 112.892,159.392 112.892,156.669C112.892,141.525 118.171,127.604 127.014,116.665L149.112,116.665C151.114,116.665 152.74,115.04 152.74,113.037C152.74,111.035 151.114,109.409 149.112,109.409L133.903,109.409Z" style="fill:rgb(0,152,255);"/>
                </g>
                <g transform="matrix(1,0,0,0.570495,0,73.7435)">
                    <path d="M227.546,171.694C231.875,179.048 235.242,188.128 237.249,198.325L214.198,198.325C210.006,198.325 206.602,192.358 206.602,185.009C206.602,177.66 210.006,171.694 214.198,171.694L227.546,171.694Z" style="fill:rgb(0,116,255);"/>
                </g>
                <g transform="matrix(1,0,0,1,-9.4139,-5.04991)">
                    <circle cx="188.135" cy="192.61" r="7.258" style="fill:rgb(0,116,255);"/>
                </g>
                <g transform="matrix(0.669676,0,0,0.669676,94.9041,73.1019)">
                    <circle cx="188.135" cy="192.61" r="7.258" style="fill:rgb(0,116,255);"/>
                </g>
                <g transform="matrix(0.425424,0,0,0.425424,110.647,99.8476)">
                    <circle cx="188.135" cy="192.61" r="7.258" style="fill:rgb(0,116,255);"/>
                </g>
                <g transform="matrix(0.239448,0,0,0.239448,181.484,161.74)">
                    <circle cx="188.135" cy="192.61" r="7.258" style="fill:rgb(0,116,255);"/>
                </g>
                <g transform="matrix(0.381354,0,0,0.381354,140.047,94.3632)">
                    <circle cx="188.135" cy="192.61" r="7.258" style="fill:rgb(0,116,255);"/>
                </g>
                <g transform="matrix(0.357769,0,0,0.357769,120.486,129.224)">
                    <circle cx="188.135" cy="192.61" r="7.258" style="fill:rgb(0,116,255);"/>
                </g>
                <g transform="matrix(0.586053,0,0,0.586053,75.8436,104.129)">
                    <circle cx="188.135" cy="192.61" r="7.258" style="fill:rgb(0,116,255);"/>
                </g>
                <path d="M160.82,204.969L176.563,204.969C178.385,204.969 179.865,206.449 179.865,208.272C179.865,210.095 178.385,211.574 176.563,211.574L162.207,211.574L161.277,207.962L160.82,204.969Z" style="fill:rgb(0,116,255);"/>
                <g transform="matrix(2.01449,0,0,1.25882,-95.1309,-45.3456)">
                    <path d="M164.583,207.119C164.307,208.034 164.032,208.949 163.756,209.864L163.106,211.574L150.879,211.574C149.74,211.574 148.815,210.095 148.815,208.272C148.815,206.449 149.74,204.969 150.879,204.969L165.075,204.969L164.583,207.119Z" style="fill:rgb(0,116,255);"/>
                </g>
                <g transform="matrix(2.01449,0,0,0.679438,-177.219,31.5093)">
                    <path d="M174.082,204.969L178.751,204.969C179.366,204.969 179.865,206.449 179.865,208.272C179.865,210.095 179.366,211.574 178.751,211.574L171.967,211.574C172.61,209.2 173.313,206.978 174.082,204.969Z" style="fill:rgb(0,116,255);"/>
                </g>
                <g transform="matrix(2.01449,0,0,0.543301,-159.904,119.056)">
                    <path d="M166.155,204.969L178.974,204.969C179.466,204.969 179.865,206.449 179.865,208.272C179.865,210.095 179.466,211.574 178.974,211.574L168.684,211.574L168.153,210.429C167.731,209.346 167.309,208.262 166.887,207.179L166.155,204.969Z" style="fill:rgb(0,116,255);"/>
                </g>
                <g transform="matrix(2.01449,0,0,0.658581,-88.0115,90.236)">
                    <path d="M157.356,207.416C157.072,208.302 156.788,209.187 156.504,210.072L155.958,211.574L149.895,211.574C149.299,211.574 148.815,210.095 148.815,208.272C148.815,206.449 149.299,204.969 149.895,204.969L158.049,204.969L157.356,207.416Z" style="fill:rgb(0,116,255);"/>
                </g>
            </g>
            <g transform="matrix(0.506994,0,0,0.506994,95.7777,84.2037)">
                <circle cx="205.569" cy="183.025" r="45.886" style="fill:white;"/>
            </g>
        </g>
        <g transform="matrix(0.654725,0,0,0.889081,71.0185,19.4789)">
            <rect x="182.01" y="187.659" width="29.982" height="82.571" style="fill:white;"/>
        </g>
    </g>
</svg>
